<?xml version="1.0" standalone="no"?><!DOCTYPE svg PUBLIC "-//W3C//DTD SVG 1.1//EN" "http://www.w3.org/Graphics/SVG/1.1/DTD/svg11.dtd"><svg t="1645844463104" class="icon" viewBox="0 0 1024 1024" version="1.1" xmlns="http://www.w3.org/2000/svg" p-id="6520" xmlns:xlink="http://www.w3.org/1999/xlink" width="200" height="200"><defs><style type="text/css"></style></defs><path d="M515.072 961.792c-254.08 0-460.8-206.72-460.8-460.8A460.16 460.16 0 0 1 299.008 94.08L359.04 62.144l-24.064 63.616a407.552 407.552 0 0 0-26.816 144.64 410.112 410.112 0 0 0 409.6 409.664c66.752 0 133.12-16.576 192.064-47.872l60.032-31.936-24.064 63.616c-67.456 178.304-240.576 298.048-430.72 298.048zM267.136 175.104a408.704 408.704 0 0 0-161.664 325.888c0 225.856 183.744 409.6 409.6 409.6a411.712 411.712 0 0 0 354.368-205.12 461.056 461.056 0 0 1-151.68 25.792c-254.08 0-460.8-206.72-460.8-460.864 0-32 3.456-63.872 10.24-95.296z" p-id="6521"></path></svg>