<?xml version="1.0" standalone="no"?><!DOCTYPE svg PUBLIC "-//W3C//DTD SVG 1.1//EN" "http://www.w3.org/Graphics/SVG/1.1/DTD/svg11.dtd"><svg t="1645844479794" class="icon" viewBox="0 0 1024 1024" version="1.1" xmlns="http://www.w3.org/2000/svg" p-id="7342" xmlns:xlink="http://www.w3.org/1999/xlink" width="200" height="200"><defs><style type="text/css"></style></defs><path d="M512 755.2c-134.08 0-243.2-109.12-243.2-243.2S377.92 268.8 512 268.8s243.2 109.12 243.2 243.2-109.12 243.2-243.2 243.2zM512 320C406.144 320 320 406.144 320 512s86.144 192 192 192 192-86.144 192-192-86.144-192-192-192zM947.2 537.6h-128a25.6 25.6 0 1 1 0-51.2h128a25.6 25.6 0 1 1 0 51.2zM204.8 537.6h-128a25.6 25.6 0 1 1 0-51.2h128a25.6 25.6 0 1 1 0 51.2zM819.712 845.312a25.6 25.6 0 0 1-18.112-7.488l-90.496-90.496a25.6 25.6 0 0 1 36.224-36.224l90.496 90.496a25.6 25.6 0 0 1-18.112 43.712zM294.72 320.32a25.6 25.6 0 0 1-18.112-7.488L186.112 222.336a25.6 25.6 0 0 1 36.224-36.224l90.496 90.496a25.6 25.6 0 0 1-18.112 43.712zM512 972.8a25.6 25.6 0 0 1-25.6-25.6v-128a25.6 25.6 0 1 1 51.2 0v128a25.6 25.6 0 0 1-25.6 25.6zM512 230.4a25.6 25.6 0 0 1-25.6-25.6v-128a25.6 25.6 0 1 1 51.2 0v128a25.6 25.6 0 0 1-25.6 25.6zM204.288 845.312a25.6 25.6 0 0 1-18.112-43.712l90.496-90.496a25.6 25.6 0 0 1 36.224 36.224l-90.496 90.496a25.6 25.6 0 0 1-18.112 7.488zM729.216 320.384a25.6 25.6 0 0 1-18.112-43.712l90.496-90.496a25.6 25.6 0 0 1 36.224 36.224l-90.496 90.496a25.472 25.472 0 0 1-18.112 7.488z" p-id="7343" fill="#ffffff"></path></svg>