<?xml version="1.0" encoding="utf-8"?>
<!-- Generator: Adobe Illustrator 26.0.2, SVG Export Plug-In . SVG Version: 6.00 Build 0)  -->
<svg version="1.1" id="枠2_xA0_画像_00000019677946178842135330000004825259698748454816_"
	 xmlns="http://www.w3.org/2000/svg" xmlns:xlink="http://www.w3.org/1999/xlink" x="0px" y="0px" viewBox="0 0 67.6 232.1"
	 style="enable-background:new 0 0 67.6 232.1;" xml:space="preserve">
<g>
	<path d="M67.6,21.4c-0.3,1.7-1,4.8-1.3,7.9c-0.3,3.4,0,6.8-0.1,10.2c-0.3,8.8-1.1,17.6-0.9,26.3c0.2,9,1.4,18.1,2.1,27.1
		c0.1,1.6,0.3,3.4-0.3,4.8c-2.9,6.3-1.8,12.6-0.9,19c0.4,2.8,0.1,5.8,0.1,8.6c0,2.5,0,5,0,7.5c0,10.2-0.1,20.5-0.1,30.7
		c0,6.5,0.1,13.1,0.1,19.6c0,6.1,0,12.1,0,18.2c0,7,0,13.9-0.1,20.9c0,7.8-1,8.4-8.5,8.4c-6,0-11.9-0.4-18.1,0.5
		c-10.2,1.4-20.8,0.6-31.2,0.3c-4.8-0.1-7.1-3.5-6.9-9.1c0.2-8.8,0.7-17.5,0.6-26.3c0-8.5-0.9-16.9-0.9-25.4c0-8.3,0.6-16.6,1-24.9
		c0.3-7.6,0.9-15.2,0.9-22.8c-0.1-4.5-1.7-9.1-1.8-13.6c-0.1-8.4,1-16.7,0.8-25.1C1.9,74.2,0.9,64,0.2,53.7c-0.1-1.7-0.5-3.5,0-5
		C5,35.4,0.2,21.8,1.7,8.4C2.5,1,3.3,0.2,10.4,0.6C18.8,0.9,27.2,0,35.6,0c5.4,0,10.8,0.6,16.3,0.8c2.7,0.1,5.5,0.2,8.1-0.1
		c4.8-0.7,5.9,0.2,6.2,5C66.5,10.4,67,15.2,67.6,21.4z"/>
</g>
</svg>
