<?xml version="1.0" encoding="utf-8"?>
<!-- Generator: Adobe Illustrator 26.0.2, SVG Export Plug-In . SVG Version: 6.00 Build 0)  -->
<svg version="1.1" id="レイヤー_1" xmlns="http://www.w3.org/2000/svg" xmlns:xlink="http://www.w3.org/1999/xlink" x="0px"
	 y="0px" viewBox="0 0 40 40" style="enable-background:new 0 0 40 40;" xml:space="preserve">
<path d="M20.5,30.6C14.1,30.8,9.3,25.8,9,20.1C9.8,14.2,14.7,9.3,20.6,9c6,0.2,10.7,4.8,10.9,10.6C31.5,26.2,26.1,31,20.5,30.6z
	 M20.5,10.9c-5.3,0.2-9.2,4.1-9.4,9.2c0.7,5,4.6,8.9,9.4,8.6c4.9,0.2,8.7-4.1,8.9-9.1C29.4,15.3,25,11.2,20.5,10.9z"/>
<path d="M20.5,36.2c-9-0.4-16-6.6-16.8-16.4c1.1-7.9,7.7-15.6,16.9-15.9c8.3,0.3,15.4,7.4,15.6,16.9C36.8,28.6,28.8,35.9,20.5,36.2z
	 M20.5,6.2C12.6,5.8,6.5,13,5.8,19.9c1,8.5,6.7,14.4,14.8,14c7.2,0.3,13.5-6.1,13.6-13.2C34.7,12.2,27.7,5.9,20.5,6.2z"/>
</svg>
